<?xml version="1.0" standalone="no"?>
<!DOCTYPE svg PUBLIC "-//W3C//DTD SVG 20010904//EN"
 "http://www.w3.org/TR/2001/REC-SVG-20010904/DTD/svg10.dtd">
<svg version="1.0" xmlns="http://www.w3.org/2000/svg"
 width="691.000000pt" height="691.000000pt" viewBox="0 0 691.000000 691.000000"
 preserveAspectRatio="xMidYMid meet">
<metadata>
Created by potrace 1.11, written by Peter Selinger 2001-2013
</metadata>
<g transform="translate(0.000000,691.000000) scale(0.100000,-0.100000)"
fill="#000000" stroke="none">
<path d="M2990 6889 c-58 -9 -183 -29 -213 -35 -10 -2 -26 -5 -35 -8 -9 -3
-30 -8 -47 -10 -50 -9 -184 -45 -290 -78 -141 -43 -440 -163 -469 -187 -8 -7
-21 -14 -28 -15 -13 -2 -105 -49 -143 -73 -11 -7 -27 -15 -35 -19 -83 -39
-447 -290 -500 -344 -3 -3 -36 -32 -74 -65 -134 -117 -342 -334 -421 -440 -17
-22 -32 -42 -35 -45 -32 -29 -214 -304 -266 -400 -11 -19 -22 -37 -25 -40 -13
-12 -143 -289 -183 -390 -10 -25 -23 -56 -28 -70 -37 -91 -125 -393 -143 -489
-3 -14 -9 -51 -15 -81 -6 -30 -12 -66 -15 -79 -2 -13 -8 -49 -12 -80 -11 -74
-10 -892 0 -956 12 -70 65 -333 76 -375 93 -352 243 -695 430 -985 25 -38 50
-78 56 -87 11 -18 108 -151 154 -211 86 -112 330 -365 452 -468 68 -58 170
-139 199 -159 13 -8 35 -25 50 -37 15 -13 33 -23 39 -23 6 0 11 -4 11 -8 0 -5
12 -15 27 -23 16 -8 37 -22 47 -31 11 -10 26 -18 33 -18 7 0 13 -4 13 -10 0
-5 4 -10 8 -10 5 0 47 -23 93 -50 102 -61 315 -167 424 -210 109 -44 292 -109
335 -120 19 -4 71 -18 115 -30 44 -12 89 -24 100 -26 101 -20 186 -37 215 -41
19 -2 62 -8 94 -13 32 -5 63 -7 67 -4 5 3 9 2 9 -3 0 -12 97 -16 385 -17 336
0 461 11 715 65 124 26 118 25 170 39 25 7 52 13 61 15 21 4 259 83 284 94 11
5 57 23 102 41 71 28 330 152 373 179 8 5 62 38 120 72 58 35 121 75 141 91
20 15 40 28 44 28 3 0 12 6 20 12 7 7 25 22 41 33 43 31 186 145 214 171 14
13 39 35 55 49 122 108 278 274 385 410 30 39 60 76 66 82 24 25 203 301 251
388 66 118 143 280 192 402 44 111 117 333 126 381 3 17 10 43 15 57 5 14 9
29 9 33 -1 4 0 9 1 12 5 13 18 73 30 140 6 30 12 66 15 80 3 14 8 48 11 75 3
28 9 75 14 105 10 63 7 739 -3 815 -4 28 -10 68 -13 90 -3 22 -7 47 -10 56 -3
10 -6 30 -9 45 -14 104 -92 406 -125 489 -4 11 -18 47 -30 80 -58 158 -208
481 -229 495 -5 3 -11 14 -15 25 -6 19 -85 148 -104 171 -5 5 -15 21 -22 34
-7 13 -21 33 -31 44 -11 11 -19 23 -19 28 0 7 -21 35 -47 63 -7 8 -13 16 -13
19 0 7 -26 39 -57 72 -13 13 -23 27 -23 31 0 4 -27 37 -60 72 -33 35 -60 66
-60 68 0 16 -335 332 -394 372 -12 8 -23 17 -26 20 -12 14 -227 171 -234 171
-2 0 -31 18 -64 39 -65 44 -102 65 -264 154 -36 20 -136 65 -318 145 -92 40
-422 140 -519 157 -19 3 -38 8 -42 10 -4 3 -24 7 -45 10 -22 2 -66 9 -99 15
-33 6 -85 15 -115 20 -69 11 -846 11 -920 -1z m644 -8 c27 0 47 -3 44 -6 -3
-3 -128 -7 -279 -9 -151 -2 -283 -6 -294 -9 -11 -3 -49 -8 -85 -12 -36 -4 -74
-9 -85 -11 -10 -2 -60 -11 -110 -20 -97 -17 -120 -22 -120 -24 0 -1 -13 -4
-30 -6 -81 -13 -341 -92 -434 -132 -18 -8 -39 -15 -45 -17 -20 -4 -70 -25 -98
-41 -16 -8 -28 -12 -28 -9 0 3 -10 -1 -22 -9 -12 -9 -30 -16 -40 -16 -10 0
-18 -5 -18 -12 0 -6 -2 -9 -5 -6 -3 3 -56 -21 -117 -53 -61 -33 -113 -58 -115
-55 -8 7 194 112 347 179 104 46 369 137 475 163 59 14 146 34 170 38 17 3 41
8 55 11 14 3 41 8 60 11 19 3 42 7 50 9 8 2 40 7 70 11 30 3 69 8 85 10 17 2
77 6 135 10 58 3 106 7 107 8 2 2 245 0 327 -3z m205 -16 c11 -2 46 -6 78 -10
32 -3 117 -17 188 -31 163 -31 170 -32 197 -43 13 -5 25 -9 28 -9 3 0 23 -5
45 -11 22 -6 42 -10 45 -11 3 0 52 -16 110 -36 58 -19 110 -36 115 -38 6 -1
15 -5 21 -8 9 -6 101 -41 143 -54 8 -2 11 -7 8 -11 -5 -5 -93 26 -192 67 -48
19 -253 82 -312 95 -47 10 -59 13 -102 25 -25 6 -54 13 -65 14 -12 2 -32 6
-46 9 -14 4 -43 9 -65 11 -22 3 -51 7 -65 10 -14 2 -52 8 -85 12 -33 3 -69 8
-80 9 -11 2 -41 4 -67 4 -27 1 -48 6 -48 11 0 9 91 6 149 -5z m1088 -308 c131
-64 175 -88 170 -93 -2 -2 -32 11 -67 31 -34 19 -63 35 -65 35 -9 0 -135 61
-135 65 0 8 6 6 97 -38z m221 -115 c15 -10 44 -27 65 -37 20 -11 37 -23 37
-28 0 -5 -13 1 -29 12 -16 12 -32 21 -36 21 -3 0 -23 11 -43 25 -20 14 -33 25
-28 25 4 0 20 -8 34 -18z m-3428 -32 c-14 -11 -43 -29 -66 -40 -22 -10 -47
-26 -54 -35 -7 -8 -17 -15 -22 -15 -10 0 -70 -40 -80 -55 -5 -6 -8 -6 -8 1 0
6 19 24 43 39 23 16 54 36 69 47 15 10 32 18 38 18 5 0 10 5 10 10 0 6 6 10
13 10 6 0 23 9 37 20 14 11 30 20 35 20 6 0 -1 -9 -15 -20z m3580 -61 c17 -13
18 -17 5 -10 -33 17 -51 31 -40 31 6 0 21 -10 35 -21z m60 -34 c7 -8 9 -15 6
-15 -4 0 -14 7 -22 15 -9 8 -11 15 -6 15 5 0 15 -7 22 -15z m-3885 -64 c-3 -6
-14 -10 -23 -10 -15 1 -15 2 1 6 9 2 17 9 17 15 0 6 3 9 6 5 3 -3 3 -10 -1
-16z m3991 -13 l19 -23 -25 20 c-14 11 -27 21 -29 22 -2 2 0 3 6 3 5 0 18 -10
29 -22z m-4041 -20 c-11 -6 -43 -30 -71 -52 -28 -23 -63 -50 -79 -61 -15 -11
-51 -41 -79 -67 -28 -26 -54 -48 -58 -48 -11 0 99 100 142 130 36 25 63 47 84
65 22 21 61 45 71 45 5 0 1 -6 -10 -12z m4105 -24 c0 -2 -9 0 -20 6 -11 6 -20
13 -20 16 0 2 9 0 20 -6 11 -6 20 -13 20 -16z m50 -40 c0 -2 -9 0 -20 6 -11 6
-20 13 -20 16 0 2 9 0 20 -6 11 -6 20 -13 20 -16z m176 -151 c-7 -7 -32 8 -44
28 -12 19 -11 19 17 -2 17 -12 29 -24 27 -26z m-4655 -53 c-18 -17 -36 -30
-40 -30 -7 1 61 60 69 60 3 0 -10 -14 -29 -30z m-51 -44 c0 -2 -8 -10 -17 -17
-16 -13 -17 -12 -4 4 13 16 21 21 21 13z m4858 -47 c12 -18 11 -19 -6 -10 -11
6 -22 17 -25 25 -8 21 16 10 31 -15z m-4907 -2 c-10 -9 -11 -8 -5 6 3 10 9 15
12 12 3 -3 0 -11 -7 -18z m5049 -152 l25 -29 -25 16 c-14 8 -27 24 -29 34 -2
11 -2 17 0 14 2 -3 15 -18 29 -35z m-5170 21 c0 -2 -8 -10 -17 -17 -16 -13
-17 -12 -4 4 13 16 21 21 21 13z m-59 -69 c-10 -9 -11 -8 -5 6 3 10 9 15 12
12 3 -3 0 -11 -7 -18z m-391 -567 c-6 -11 -13 -20 -16 -20 -2 0 0 9 6 20 6 11
13 20 16 20 2 0 0 -9 -6 -20z m-140 -302 c0 -13 -9 -34 -20 -48 -16 -20 -19
-21 -14 -5 4 11 10 25 13 30 6 10 7 16 10 35 2 20 11 10 11 -12z m6404 -178
c17 -49 14 -59 -9 -40 -9 7 -15 29 -15 53 0 48 3 46 24 -13z m-6570 -363 c-6
-33 -19 -66 -27 -74 -11 -12 -10 3 6 77 13 59 23 86 27 74 4 -10 1 -45 -6 -77z
m6730 -282 c2 -16 6 -52 9 -80 4 -27 9 -72 12 -100 l6 -50 -25 24 c-20 18 -26
35 -26 65 0 23 -5 59 -10 81 -6 22 -7 84 -3 140 l6 100 14 -75 c7 -41 15 -88
17 -105z m22 -807 c-4 -46 -14 -126 -22 -178 -8 -52 -18 -113 -21 -135 -3 -22
-6 -41 -8 -43 -8 -9 -13 200 -5 233 5 22 10 67 10 99 0 47 5 65 22 83 12 13
23 23 26 23 2 0 1 -37 -2 -82z m-6756 -437 c12 -44 13 -109 2 -95 -5 5 -15 36
-22 69 -7 33 -15 67 -18 75 -5 13 -3 13 11 1 9 -7 21 -30 27 -50z m6562 -431
c-10 -27 -20 -50 -24 -50 -15 0 -8 69 8 84 27 28 32 17 16 -34z m-138 -320
c-14 -27 -28 -50 -30 -50 -2 0 -4 15 -4 34 0 36 21 66 46 66 11 0 8 -12 -12
-50z m-6110 -126 c3 -8 2 -12 -4 -9 -6 3 -10 10 -10 16 0 14 7 11 14 -7z
m5956 -149 c0 -7 -52 -85 -56 -85 -11 0 -2 61 12 74 15 15 44 22 44 11z
m-5625 -336 c10 -29 3 -31 -18 -3 -15 20 -15 24 -3 24 8 0 18 -9 21 -21z
m5285 -133 c0 -2 -8 -10 -17 -17 -16 -13 -17 -12 -4 4 13 16 21 21 21 13z
m-5154 -24 c6 -4 17 -18 24 -32 12 -24 11 -24 -19 4 -17 17 -31 31 -31 33 0 5
15 3 26 -5z m171 -169 c24 -36 12 -35 -31 1 -36 32 -37 33 -11 29 14 -3 33
-16 42 -30z m4823 23 c0 -2 -8 -10 -17 -17 -16 -13 -17 -12 -4 4 13 16 21 21
21 13z m-4665 -176 c27 -30 12 -34 -15 -5 -13 14 -19 25 -13 25 5 0 18 -9 28
-20z m4035 -320 c-14 -10 -27 -17 -29 -15 -8 8 22 35 38 35 12 0 10 -5 -9 -20z
m-303 -166 c-27 -14 -52 -22 -55 -19 -13 12 40 45 72 45 30 -1 30 -1 -17 -26z
m-327 -138 c0 -2 -9 -6 -20 -9 -11 -3 -18 -1 -14 4 5 9 34 13 34 5z m-2296
-15 c4 -5 -3 -7 -14 -4 -23 6 -26 13 -6 13 8 0 17 -4 20 -9z m766 -149 c41 -4
84 -13 95 -20 17 -11 10 -12 -45 -8 -64 5 -79 7 -199 21 -38 4 -59 11 -55 17
4 7 29 8 68 4 33 -4 95 -10 136 -14z m898 9 c14 -9 -110 -27 -247 -37 -42 -3
-83 -7 -91 -10 -8 -2 -4 5 9 16 19 16 39 20 105 21 44 1 95 5 111 9 42 11 97
11 113 1z"/>
</g>
</svg>
